<svg xmlns="http://www.w3.org/2000/svg" width="38" height="38" viewBox="0 0 38 38">
  <g id="calendar" transform="translate(-71 -638)">
    <circle id="Ellipse_6" data-name="Ellipse 6" cx="19" cy="19" r="19" transform="translate(71 638)" fill="#e1f4f2"/>
    <g id="Group_55" data-name="Group 55" transform="translate(-2325.453 868.142)">
      <path id="Path_59" data-name="Path 59" d="M2415.732-198.677h-1.225a.471.471,0,0,0-.125-.062,5.808,5.808,0,0,1-4.965-4.283c-.087-.277-.255-.264-.462-.263q-1.649,0-3.3,0c-.577,0-.769-.187-.77-.752q0-6.926,0-13.852c0-.523.218-.743.744-.75.659-.01,1.319,0,1.979,0h2.117c.089-.508-.12-1.2.62-1.215.79-.018.595.717.692,1.176h3.442c.058-.9.19-1.2.594-1.185.8.029.618.7.691,1.183h3.621c.045-.894.183-1.2.594-1.184.808.029.605.713.7,1.224,1.308,0,2.594,0,3.879,0,.584,0,.8.215.8.8q0,6.9,0,13.8c0,.563-.2.753-.768.755-1.083,0-2.167.013-3.251-.007-.321-.006-.447.084-.549.4a5.811,5.811,0,0,1-3.743,3.873C2416.618-198.863,2416.169-198.788,2415.732-198.677Zm8.357-5.86v-9.011h-17.936v9.014h3.023a5.9,5.9,0,0,1,1.722-4.25,5.784,5.784,0,0,1,4.266-1.768,5.689,5.689,0,0,1,3.722,1.351,5.906,5.906,0,0,1,2.175,4.665Zm-4.273-.088a4.706,4.706,0,0,0-4.749-4.7,4.71,4.71,0,0,0-4.645,4.7,4.723,4.723,0,0,0,4.8,4.7A4.726,4.726,0,0,0,2419.816-204.625Zm-4.048-12.759c-.081.918-.218,1.193-.63,1.172-.777-.04-.585-.7-.669-1.158h-3.447c-.044.489.071,1.095-.587,1.143-.833.061-.6-.691-.707-1.157h-3.572v2.543h17.926v-2.538h-3.4c-.124.951-.258,1.206-.666,1.168-.735-.069-.575-.685-.639-1.172Z" transform="translate(0 0)"/>
      <path id="Path_60" data-name="Path 60" d="M2436.205-144.1h-3.029a5.9,5.9,0,0,0-2.174-4.665,5.689,5.689,0,0,0-3.721-1.351,5.785,5.785,0,0,0-4.266,1.768,5.9,5.9,0,0,0-1.722,4.25h-3.024v-9.014h17.936Z" transform="translate(-12.117 -60.434)" fill="#fff"/>
      <path id="Path_61" data-name="Path 61" d="M2472.768-103.75a4.727,4.727,0,0,1-4.6,4.711,4.723,4.723,0,0,1-4.8-4.7,4.71,4.71,0,0,1,4.645-4.7A4.706,4.706,0,0,1,2472.768-103.75Zm-5.313-1.218c0,.5-.023,1.006.011,1.506a1.108,1.108,0,0,0,.239.627c.419.466.875.9,1.33,1.333a.6.6,0,0,0,.915.033.622.622,0,0,0-.063-.922c-.307-.315-.643-.6-.921-.941a1.158,1.158,0,0,1-.264-.645c-.031-.846-.007-1.695-.015-2.542,0-.449-.263-.735-.639-.7a.608.608,0,0,0-.593.7C2467.456-106,2467.454-105.486,2467.454-104.968Z" transform="translate(-52.952 -100.875)" fill="#15aa99"/>
      <path id="Path_62" data-name="Path 62" d="M2427.916-193.647h3.607c.065.487-.1,1.1.639,1.172.408.038.542-.217.666-1.168h3.4v2.538H2418.3v-2.543h3.572c.1.466-.125,1.218.708,1.157.657-.048.542-.654.587-1.143h3.447c.083.459-.109,1.119.669,1.158C2427.7-192.454,2427.836-192.728,2427.916-193.647Z" transform="translate(-12.149 -23.738)" fill="#fff"/>
      <path id="Path_63" data-name="Path 63" d="M2506.413-93.3c0-.518,0-1.036,0-1.554a.608.608,0,0,1,.593-.7c.376-.032.635.253.639.7.009.847-.015,1.7.015,2.542a1.16,1.16,0,0,0,.264.645c.278.337.615.626.921.941a.622.622,0,0,1,.063.922.6.6,0,0,1-.915-.033c-.455-.432-.911-.866-1.329-1.333a1.109,1.109,0,0,1-.24-.627C2506.389-92.293,2506.413-92.8,2506.413-93.3Z" transform="translate(-91.91 -112.544)"/>
    </g>
  </g>
</svg>
