<svg xmlns="http://www.w3.org/2000/svg" width="27.055" height="31.216" viewBox="0 0 27.055 31.216">
  <g id="CLICK_AND_COLLECT" transform="translate(-12.87 -5.18)">
    <g id="Layer_1" data-name="Layer 1" transform="translate(13.62 5.93)">
      <path id="Path_190" data-name="Path 190" d="M70.917,10.26c0,2.459-1.995,9.027-4.471,9.027S62,12.718,62,10.26a4.453,4.453,0,0,1,8.9,0Z" transform="translate(-45.362 -5.93)" fill="#fff" stroke="#014c6b" stroke-miterlimit="10" stroke-width="1.5"/>
      <circle id="Ellipse_32" data-name="Ellipse 32" cx="1.795" cy="1.795" r="1.795" transform="translate(19.306 3.026)" fill="#fff" stroke="#014c6b" stroke-miterlimit="10" stroke-width="1.5"/>
      <rect id="Rectangle_42" data-name="Rectangle 42" width="8.793" height="13.13" rx="4.397" transform="translate(0 3.061)" fill="#fff" stroke="#014c6b" stroke-miterlimit="10" stroke-width="1.5"/>
      <line id="Line_13" data-name="Line 13" y1="5.014" transform="translate(4.398 11.177)" fill="none" stroke="#014c6b" stroke-linecap="round" stroke-miterlimit="10" stroke-width="1.5"/>
    </g>
    <g id="Layer_2" data-name="Layer 2" transform="translate(18.025 21.46)">
      <path id="Path_191" data-name="Path 191" d="M75,51.09v.688" transform="translate(-58.297 -51.09)" fill="rgba(0,0,0,0)" stroke="#014c6b" stroke-linecap="round" stroke-miterlimit="10" stroke-width="1.5"/>
      <path id="Path_192" data-name="Path 192" d="M72.5,58.29a20.726,20.726,0,0,1-1.1,4.942" transform="translate(-55.935 -55.814)" fill="rgba(0,0,0,0)" stroke="#014c6b" stroke-linecap="round" stroke-miterlimit="10" stroke-width="1.5" stroke-dasharray="3.47 5.21 3.47 5.21"/>
      <path id="Path_193" data-name="Path 193" d="M41.647,62.352c-1.513,3.594-3.993,5.936-6.8,5.936-4.3,0-7.837-5.5-8.3-12.607" transform="translate(-26.509 -54.102)" fill="rgba(0,0,0,0)" stroke="#014c6b" stroke-linecap="round" stroke-miterlimit="10" stroke-width="1.5" stroke-dasharray="3.47 5.21 3.47 5.21 3.47 5.21"/>
      <path id="Path_194" data-name="Path 194" d="M26.43,51.778V51.09" transform="translate(-26.43 -51.09)" fill="rgba(0,0,0,0)" stroke="#014c6b" stroke-linecap="round" stroke-miterlimit="10" stroke-width="1.5"/>
    </g>
  </g>
</svg>
