<svg xmlns="http://www.w3.org/2000/svg" width="20.309" height="20.329" viewBox="0 0 20.309 20.329">
  <g id="Directions" transform="translate(-957.711 -838.941)">
    <path id="Path_52" data-name="Path 52" d="M967.863,859.27a2.718,2.718,0,0,1-1.786-.742q-3.821-3.84-7.658-7.664a2.557,2.557,0,0,1,0-3.529q3.846-3.847,7.693-7.693a2.556,2.556,0,0,1,3.529.012l7.692,7.694a2.564,2.564,0,0,1,0,3.5q-3.829,3.831-7.655,7.665A2.792,2.792,0,0,1,967.863,859.27Zm-.054-1.219c.606.01.926-.419,1.265-.752q2.745-2.7,5.458-5.433c.651-.653,1.291-1.317,1.912-2a1.036,1.036,0,0,0,0-1.56c-.069-.082-.138-.166-.214-.242-2.475-2.48-4.944-4.967-7.432-7.435a1.2,1.2,0,0,0-1.928.047q-2.913,2.891-5.813,5.795c-.576.576-1.147,1.157-1.7,1.759a1.081,1.081,0,0,0-.019,1.7c.21.245.425.486.652.715q3.09,3.1,6.189,6.2a12.086,12.086,0,0,0,1.027.924A2.74,2.74,0,0,0,967.809,858.051Z" fill="#231f20"/>
    <path id="Path_53" data-name="Path 53" d="M1036.569,901.728V899.2a3.912,3.912,0,0,1,.47.315c.788.755,1.582,1.5,2.347,2.282.513.521.51.766,0,1.285-.775.79-1.574,1.556-2.367,2.327a3.675,3.675,0,0,1-.447.3v-2.62c-.36,0-.629,0-.9,0-.692.006-1.384.01-2.075.021a1.21,1.21,0,0,0-1.223,1.222c-.01.815-.011,1.629-.018,2.444a4.668,4.668,0,0,1-.017.507.543.543,0,0,1-.624.533.525.525,0,0,1-.567-.582c0-1.076-.023-2.153.009-3.228a2.49,2.49,0,0,1,2.311-2.176c.968-.013,1.937-.016,2.905-.025A1.083,1.083,0,0,0,1036.569,901.728Z" transform="translate(-66.658 -54.702)" fill="#231f20"/>
  </g>
</svg>
