<svg xmlns="http://www.w3.org/2000/svg" width="22.838" height="24.373" viewBox="0 0 22.838 24.373">
  <g id="Group_90" data-name="Group 90" transform="translate(-5.478 -5.507)">
    <g id="Group_38" data-name="Group 38" transform="translate(5.478 5.507)">
      <path id="Path_46" data-name="Path 46" d="M910.42,244.273a13.7,13.7,0,0,1,4.99,1.74,14.257,14.257,0,0,1,6.91,9.576c.1.48.194.974-.384,1.226-.529.231-.919-.1-1.085-.866a12.588,12.588,0,0,0-7.15-9.1,20.373,20.373,0,0,0-3.131-1.008c-.466-.137-.832-.377-.71-.874C909.93,244.674,910.267,244.45,910.42,244.273Z" transform="translate(-899.559 -244.273)" fill="#014c6b"/>
      <path id="Path_47" data-name="Path 47" d="M909.007,275.97c.656.177,1.152.267,1.617.443a8.644,8.644,0,0,1,5.625,6.266c.025.1.044.2.062.294.093.506-.022.94-.576,1.045s-.817-.238-.919-.754a7.066,7.066,0,0,0-2.43-4.126,6.893,6.893,0,0,0-3.284-1.562c-.483-.088-.834-.369-.708-.867C908.469,276.419,908.81,276.2,909.007,275.97Z" transform="translate(-897.36 -271.771)" fill="#014c6b"/>
      <path id="Path_48" data-name="Path 48" d="M841.6,284.454a9.578,9.578,0,0,1-4.242-1.484,21.705,21.705,0,0,1-9.741-11.781,10.4,10.4,0,0,1-.39-1.562,3.242,3.242,0,0,1,.9-3.244c.445-.405.82-.9,1.25-1.326.516-.513.911-.522,1.42.009q1.326,1.386,2.6,2.827a.95.95,0,0,1-.018,1.429c-.472.541-.954,1.074-1.467,1.569a1.3,1.3,0,0,0-.291,1.627,14.827,14.827,0,0,0,2.826,4.1,14.2,14.2,0,0,0,3.65,2.926,1.019,1.019,0,0,0,1.411-.21c.494-.55.995-1.093,1.507-1.623s.9-.539,1.405-.008q1.274,1.349,2.521,2.727a1.055,1.055,0,0,1,.012,1.643c-.512.593-1.041,1.169-1.577,1.737A2.084,2.084,0,0,1,841.6,284.454Z" transform="translate(-825.615 -261.602)" fill="#fff"/>
      <path id="Path_45" data-name="Path 45" d="M824.084,263.309a15.585,15.585,0,0,0,5.749,6.246.67.67,0,0,0,.632-.112c.44-.395.82-.866,1.24-1.288a2.038,2.038,0,0,1,3.233.013q1.3,1.365,2.577,2.767a2.486,2.486,0,0,1,0,3.634c-.513.581-1.039,1.149-1.569,1.711a3.741,3.741,0,0,1-3.629,1.006,13.848,13.848,0,0,1-5.3-2.307,23.373,23.373,0,0,1-9.464-12.2,10.205,10.205,0,0,1-.409-1.721,4.571,4.571,0,0,1,1.259-4.3c.478-.454.9-.98,1.363-1.448a2.048,2.048,0,0,1,3.152-.044q1.446,1.454,2.807,3a2.385,2.385,0,0,1-.022,3.319C825.2,262.175,824.648,262.715,824.084,263.309Zm9.089,12.682a2.148,2.148,0,0,0,1.828-.653c.549-.576,1.091-1.16,1.616-1.761a1.062,1.062,0,0,0-.012-1.665q-1.276-1.4-2.583-2.764c-.513-.538-.912-.532-1.439.008s-1.038,1.088-1.544,1.645a1.051,1.051,0,0,1-1.446.212,14.518,14.518,0,0,1-3.74-2.965,15.021,15.021,0,0,1-2.895-4.155,1.305,1.305,0,0,1,.3-1.649c.525-.5,1.019-1.043,1.5-1.591a.956.956,0,0,0,.018-1.448q-1.308-1.458-2.667-2.865a.865.865,0,0,0-1.455-.009c-.44.433-.825.933-1.28,1.344a3.262,3.262,0,0,0-.927,3.287,10.461,10.461,0,0,0,.4,1.584,22.055,22.055,0,0,0,9.98,11.94A9.882,9.882,0,0,0,833.173,275.991Z" transform="translate(-817.06 -253.007)" fill="#014c6b"/>
    </g>
  </g>
</svg>
