<svg xmlns="http://www.w3.org/2000/svg" width="21.736" height="24.627" viewBox="0 0 21.736 24.627">
  <g id="Group_92" data-name="Group 92" transform="translate(0.75 -4.129)">
    <g id="Group_89" data-name="Group 89">
      <g id="Group_146" data-name="Group 146" transform="translate(-1303.335 -521.787)">
        <path id="Path_127" data-name="Path 127" d="M1320.61,529.472a10.529,10.529,0,0,0-14.312,0,9.229,9.229,0,0,0,0,13.551l7.151,6.77,7.151-6.77A9.22,9.22,0,0,0,1320.61,529.472Z" transform="translate(0 0)" fill="#fff" stroke="#014c6b" stroke-linecap="round" stroke-linejoin="round" stroke-miterlimit="10" stroke-width="1.5"/>
        <path id="Path_128" data-name="Path 128" d="M1333,550.514h-1.986v-1.951a1.875,1.875,0,0,0-1.847-1.9h-.1a1.88,1.88,0,0,0-1.847,1.9v1.94h-2a1.884,1.884,0,0,0-1.9,1.851v.089a1.884,1.884,0,0,0,1.9,1.851h1.986v2.041a1.873,1.873,0,0,0,1.847,1.9h.1a1.882,1.882,0,0,0,1.847-1.9v-2.041h1.986a1.884,1.884,0,0,0,1.9-1.851v-.089A1.879,1.879,0,0,0,1333,550.514Z" transform="translate(-15.66 -15.664)" fill="none" stroke="#014c6b" stroke-linecap="round" stroke-linejoin="round" stroke-miterlimit="10" stroke-width="1.5" fill-rule="evenodd"/>
      </g>
    </g>
  </g>
</svg>
