<svg xmlns="http://www.w3.org/2000/svg" width="181.266" height="181.238" viewBox="0 0 181.266 181.238">
  <path id="Path_203" data-name="Path 203" d="M1473.705,606.462h-30.867v-30.33c0-16.294-12.945-29.465-28.717-29.465h-1.482c-15.807,0-28.709,13.345-28.709,29.465V606.29h-31.041c-16.279,0-29.559,13-29.559,28.771v1.387c0,15.773,13.279,28.772,29.559,28.772h30.871v31.721c0,16.289,12.906,29.464,28.711,29.464h1.484c15.771,0,28.711-13.345,28.711-29.464V665.221h30.871c16.275,0,29.559-13,29.559-28.772v-1.387C1503.1,619.461,1489.813,606.462,1473.705,606.462Z" transform="translate(-1322.58 -545.917)" fill="rgba(207,235,246,0.28)" stroke="#014c6b" stroke-linecap="round" stroke-linejoin="round" stroke-miterlimit="10" stroke-width="1.5" fill-rule="evenodd"/>
</svg>
