<svg xmlns="http://www.w3.org/2000/svg" width="38" height="38" viewBox="0 0 38 38">
  <g id="phone" transform="translate(-71 -589)">
    <circle id="Ellipse_6" data-name="Ellipse 6" cx="19" cy="19" r="19" transform="translate(71 589)" fill="#e1f4f2"/>
    <g id="Group_38" data-name="Group 38" transform="translate(-736.06 354.727)">
      <path id="Path_46" data-name="Path 46" d="M910.279,244.273a10.4,10.4,0,0,1,3.787,1.321,10.822,10.822,0,0,1,5.245,7.268c.08.364.147.739-.291.931-.4.175-.7-.077-.824-.657a9.555,9.555,0,0,0-5.427-6.91,15.464,15.464,0,0,0-2.377-.765c-.354-.1-.631-.286-.539-.663C909.907,244.578,910.163,244.408,910.279,244.273Z" transform="translate(-84.975)"/>
      <path id="Path_47" data-name="Path 47" d="M908.854,275.97c.5.134.875.2,1.227.336a6.561,6.561,0,0,1,4.27,4.756c.019.074.033.148.047.223.071.384-.017.714-.437.793s-.62-.181-.7-.573a5.363,5.363,0,0,0-1.844-3.131,5.233,5.233,0,0,0-2.492-1.186c-.367-.067-.633-.28-.537-.658C908.445,276.311,908.7,276.142,908.854,275.97Z" transform="translate(-82.953 -28.51)" fill="#231f20"/>
      <path id="Path_48" data-name="Path 48" d="M838.111,279.686a7.268,7.268,0,0,1-3.219-1.127,16.474,16.474,0,0,1-7.394-8.942,7.889,7.889,0,0,1-.3-1.186,2.461,2.461,0,0,1,.687-2.462c.338-.308.623-.682.949-1.006.392-.389.692-.4,1.078.007q1.007,1.052,1.976,2.146a.721.721,0,0,1-.013,1.085c-.358.41-.724.815-1.113,1.191a.985.985,0,0,0-.221,1.235,11.255,11.255,0,0,0,2.145,3.111,10.78,10.78,0,0,0,2.771,2.221.773.773,0,0,0,1.071-.159c.375-.417.755-.83,1.144-1.232s.686-.409,1.066-.006q.967,1.024,1.913,2.07a.8.8,0,0,1,.009,1.247c-.389.45-.79.887-1.2,1.319A1.582,1.582,0,0,1,838.111,279.686Z" transform="translate(-8.921 -18.068)" fill="#fff"/>
      <path id="Path_45" data-name="Path 45" d="M822.391,261.2a11.83,11.83,0,0,0,4.363,4.741.509.509,0,0,0,.479-.085c.334-.3.622-.657.941-.978a1.547,1.547,0,0,1,2.454.01q.99,1.036,1.956,2.1a1.887,1.887,0,0,1,0,2.758c-.389.441-.789.872-1.191,1.3a2.839,2.839,0,0,1-2.755.764,10.512,10.512,0,0,1-4.023-1.751,17.741,17.741,0,0,1-7.184-9.257,7.753,7.753,0,0,1-.31-1.306,3.47,3.47,0,0,1,.956-3.263c.363-.344.68-.744,1.035-1.1a1.554,1.554,0,0,1,2.392-.033q1.1,1.1,2.131,2.279a1.81,1.81,0,0,1-.017,2.519C823.236,260.338,822.819,260.748,822.391,261.2Zm6.9,9.626a1.63,1.63,0,0,0,1.388-.5c.417-.437.828-.88,1.226-1.336a.806.806,0,0,0-.009-1.264q-.968-1.061-1.96-2.1c-.39-.408-.692-.4-1.093.006s-.788.826-1.172,1.249a.8.8,0,0,1-1.1.161,11.019,11.019,0,0,1-2.839-2.251,11.4,11.4,0,0,1-2.2-3.153.991.991,0,0,1,.226-1.252c.4-.381.774-.791,1.141-1.207a.726.726,0,0,0,.014-1.1q-.993-1.107-2.024-2.175a.657.657,0,0,0-1.1-.007c-.334.328-.626.708-.972,1.02a2.476,2.476,0,0,0-.7,2.5,7.917,7.917,0,0,0,.3,1.2,16.74,16.74,0,0,0,7.575,9.063A7.5,7.5,0,0,0,829.29,270.825Z" transform="translate(0 -9.106)"/>
    </g>
  </g>
</svg>
