


  <svg class="icon icon-instagram icon-social" aria-hidden="true" role="presentation"><use xlink:href="../../../permanent-b0b701/assets/images/icons.5016d702.svg#instagram">
  <symbol viewBox="0 0 24 24" id="instagram">
    <g fill="none" fill-rule="evenodd">
      <path fill="currentColor" d="M6.999 0C3.139 0 0 3.141 0 7.001v10C0 20.861 3.141 24 7.001 24h10C20.861 24 24 20.859 24 16.999v-10C24 3.139 20.859 0 16.999 0h-10zM19 4a1 1 0 110 2 1 1 0 010-2zm-7 2c3.31 0 6 2.69 6 6s-2.69 6-6 6-6-2.69-6-6 2.69-6 6-6zm0 2a4 4 0 100 8 4 4 0 000-8z"></path>
    </g>
  </symbol>
  </use></svg>