<?xml version="1.0" encoding="UTF-8"?>
<svg width="108px" height="34px" viewBox="0 0 108 34" version="1.1" xmlns="http://www.w3.org/2000/svg" xmlns:xlink="http://www.w3.org/1999/xlink">
    <title>Logo</title>
    <g id="Styles" stroke="none" stroke-width="1" fill="none" fill-rule="evenodd">
        <g id="*Guides/Styles" transform="translate(-99.000000, -129.000000)" fill="#000000" fill-rule="nonzero">
            <g id="Shape" transform="translate(99.000000, 129.000000)">
                <path d="M3.8,10.4 L6.6,7.8 C7.8,6.7 7.4,6 6.3,6 L6.3,5.5 L10.3,5.5 L10.3,6.1 C9.4,6.1 9,6.6 7.6,7.9 L6.1,9.3 L9.6,13.6 C10.1,14.2 10.3,14.3 10.9,14.4 L10.9,15 L8.4,15 L4.8,10.5 L3.9,11.3 L3.9,12.5 C3.9,13.3 3.9,13.6 4.1,13.8 C4.3,14.1 4.7,14.3 5.3,14.3 L5.3,15 L0.4,15 L0.4,14.4 C1,14.4 1.4,14.2 1.6,14 C1.8,13.8 1.9,13.5 1.9,12.7 L1.9,3.2 C1.9,2.1 1.8,1.5 1.6,1.2 C1.3,0.8 0.9,0.7 0.2,0.7 L0.2,0.1 L3.8,0.1 L3.8,10.4 Z M16.9,14.1 C17.8,14.1 18.5,13.6 19.1,13 L19.1,9.6 C16.2,10.6 15.5,11.5 15.5,12.6 C15.4,13.7 16.1,14.1 16.9,14.1 Z M21,12.9 C21,13.8 21.3,14 21.8,14 C22.3,14 22.5,13.7 22.7,13.3 L23.2,13.6 C22.9,14.5 22.2,15.2 21.1,15.2 C20,15.2 19.4,14.5 19.1,13.7 C18.5,14.3 17.4,15.2 15.9,15.2 C14.3,15.2 13.3,14.3 13.3,13 C13.3,11.1 14.9,10.2 19,8.8 L19,8.6 C19,6.7 18.9,5.9 17.2,5.9 C16.2,5.9 15.7,6.2 15.5,7.3 C15.4,7.8 15.2,8.3 14.5,8.3 C14,8.3 13.6,8 13.6,7.4 C13.6,6.4 14.9,5.2 17.5,5.2 C19.7,5.2 20.9,6.1 20.9,8.2 L21,12.9 L21,12.9 Z M27.9,6.3 L27.9,12.4 C27.9,13.8 28.2,14.3 29.2,14.3 C29.9,14.3 30.3,14 30.6,13.4 L31.1,13.7 C30.7,14.5 30,15.3 28.6,15.3 C26.6,15.3 25.9,14.3 25.9,12.9 L25.9,6.3 L24.8,6.3 L24.8,5.8 C26.1,5.3 27,4.1 27.5,3 L28,3 L28,5.5 L30.8,5.5 L30.8,6.3 L27.9,6.3 Z M35.6,8.5 L39.4,8.5 C40,8.5 40.1,8.3 40.1,7.9 C40.1,6.8 39.5,6 38.2,5.9 C37,6 36,6.8 35.6,8.5 Z M35.4,9.3 L35.4,10.2 C35.4,12.5 36.5,14.4 38.8,14.4 C40.1,14.4 41.1,13.7 41.6,13 L42.1,13.4 C41.5,14.2 40.4,15.3 38.3,15.3 C35.8,15.3 33.3,13.5 33.3,10.4 C33.3,7.3 35.7,5.3 38.2,5.3 C40.5,5.3 42.2,6.8 42.2,9 C42.2,9.2 42.1,9.4 41.8,9.4 L35.4,9.3 L35.4,9.3 Z M51,11.9 C51.2,13.1 52.4,14.7 54,14.7 C55.2,14.7 55.9,14 55.9,13.2 C55.9,12 54.9,11.6 53.5,11 C52,10.4 50.6,9.7 50.6,8 C50.6,6.3 52.1,5.3 53.7,5.3 C55,5.3 55.5,5.8 55.8,5.8 C56,5.8 56.1,5.7 56.2,5.4 L56.8,5.4 L56.9,8.2 L56.3,8.2 C55.9,7 54.9,6 53.8,6 C52.8,6 52.2,6.6 52.2,7.3 C52.2,8.1 53,8.6 54.3,9.1 C55.8,9.7 57.6,10.4 57.6,12.4 C57.6,14.4 55.7,15.4 54.2,15.4 C52.5,15.4 52,14.8 51.6,14.8 C51.4,14.8 51.2,15 51.2,15.3 L50.6,15.3 L50.5,12 L51,12 L51,11.9 Z M63.6,11.6 C63.6,13.6 64.9,14.5 66.1,14.5 C67.6,14.5 69.1,13.4 69.1,10.3 C69.1,8 68.4,6.2 66.2,6.2 C64.6,6.2 63.5,7.5 63.5,9.3 L63.6,11.6 L63.6,11.6 Z M65.3,20.1 L60.1,20.1 L60.1,19.5 C60.7,19.5 61.1,19.4 61.3,19.1 C61.5,18.9 61.6,18.6 61.6,17.8 L61.6,8.4 C61.6,7.5 61.6,6.7 61.3,6.4 C61.1,6.2 60.8,6.1 60,6.1 L60,5.5 L63.4,5.5 L63.4,6.9 C64,5.9 65,5.2 66.6,5.2 C69,5.2 71.2,6.9 71.2,10.1 C71.2,13.2 69,15.3 66.5,15.3 C65.1,15.3 64.1,14.8 63.5,13.9 L63.5,17.7 C63.5,18.5 63.5,18.8 63.7,19 C63.9,19.3 64.4,19.4 65.2,19.5 L65.2,20.1 L65.3,20.1 Z M77.7,14.2 C78.6,14.2 79.3,13.7 79.9,13.1 L79.9,9.7 C77,10.7 76.3,11.6 76.3,12.7 C76.2,13.7 76.9,14.2 77.7,14.2 L77.7,14.2 Z M81.8,13 C81.8,13.9 82.1,14.1 82.6,14.1 C83.1,14.1 83.3,13.8 83.5,13.4 L84,13.7 C83.7,14.6 83,15.3 81.9,15.3 C80.8,15.3 80.2,14.6 79.9,13.8 C79.3,14.4 78.2,15.3 76.7,15.3 C75.1,15.3 74.1,14.4 74.1,13.1 C74.1,11.2 75.7,10.3 79.8,8.9 L79.8,8.6 C79.8,6.7 79.7,5.9 78,5.9 C77,5.9 76.5,6.2 76.3,7.3 C76.2,7.8 76,8.3 75.3,8.3 C74.8,8.3 74.4,8 74.4,7.4 C74.4,6.4 75.7,5.2 78.3,5.2 C80.5,5.2 81.7,6.1 81.7,8.2 L81.8,13 L81.8,13 Z M93.3,8.7 C93.3,7.1 92.1,6.2 90.7,6.2 C89.2,6.2 87.7,7.3 87.7,10.5 C87.7,12.8 88.4,14.6 90.6,14.6 C92.2,14.6 93.2,13.3 93.2,11.6 L93.2,8.7 L93.3,8.7 Z M93.5,13.7 C92.9,14.5 91.9,15.3 90.2,15.3 C87.8,15.3 85.6,13.5 85.6,10.4 C85.6,7.3 87.7,5.2 90.3,5.2 C91.8,5.2 92.8,5.8 93.3,6.6 L93.3,3.2 C93.3,2.1 93.2,1.5 93,1.2 C92.8,0.9 92.3,0.8 91.7,0.7 L91.7,0.1 L95.3,0.1 L95.3,11.6 C95.3,13.1 95.4,13.8 95.8,14.1 C96.1,14.3 96.5,14.4 97,14.4 L97,15 L93.8,15 C93.7,14.7 93.6,14.3 93.5,13.7 L93.5,13.7 Z M101.2,8.5 L105,8.5 C105.6,8.5 105.7,8.3 105.7,7.9 C105.7,6.8 105.1,6 103.8,6 C102.6,6 101.6,6.9 101.2,8.5 Z M101.1,9.3 L101.1,10.2 C101.1,12.5 102.2,14.4 104.5,14.4 C105.8,14.4 106.8,13.7 107.3,13 L107.8,13.4 C107.2,14.2 106.1,15.3 104,15.3 C101.5,15.3 99,13.5 99,10.4 C99,7.3 101.4,5.3 103.9,5.3 C106.2,5.3 107.9,6.8 107.9,9 C107.9,9.2 107.8,9.4 107.5,9.4 L101.1,9.3 L101.1,9.3 Z M23.1,26.5 L24.9,26.5 L28.6,31.2 L28.6,28.4 L28.6,28.3 C28.6,27.2 28.4,27.1 27.8,27 C27.7,27 27.7,26.8 27.6,26.7 L27.6,26.5 L30,26.5 L30,26.8 L29.9,26.9 C29.3,27 29.2,27.1 29.2,28.6 L29.2,32.9 L28.6,32.9 L24.7,28 L24.7,31 C24.7,32.2 24.9,32.3 25.5,32.4 L25.6,32.5 L25.6,32.9 L23.2,32.9 L23.2,32.5 L23.3,32.4 C23.9,32.3 24,32.2 24,30.7 L24,27.4 C23.8,27.2 23.5,27.1 23.1,27.1 L23,27 L23,26.5 L23.1,26.5 Z M37.6,32.9 L32,32.9 L32,32.4 C32.8,32.4 32.9,32.3 32.9,31.3 L32.9,28.2 C32.9,27.2 32.8,27.1 32,27.1 L32,26.6 L37.2,26.6 L37.2,28.2 L36.7,28.2 C36.5,27.3 36.3,27.1 35.2,27.1 L34,27.1 L34,29.4 L34.3,29.4 C35.3,29.4 35.4,29.2 35.5,28.4 L36,28.4 L36,30.8 L35.5,30.8 C35.4,29.9 35.2,29.9 34.3,29.9 L34,29.9 L34,31.3 C34,32.1 34.2,32.4 35.2,32.4 L35.4,32.4 C36.6,32.4 36.9,32.3 37.1,31 L37.6,31 L37.6,32.9 L37.6,32.9 Z M46.3,27 L46.3,26.5 L48.6,26.5 L48.6,27 C48.1,27.1 47.9,27.3 47.6,28.3 L46.2,33.1 L45.5,33.1 L44,28.5 L42.5,33.1 L41.8,33.1 L40.1,27.8 C40,27.1 39.7,27 39.3,27 L39.3,26.5 L42.2,26.5 L42.2,27 C41.4,27 41.2,27.1 41.5,27.9 L42.5,31.4 L44.1,26.6 L44.6,26.6 L46.1,31.4 L47.1,28.1 C47.2,27.3 47.1,27 46.3,27 L46.3,27 Z M58.3,32.9 L55.2,32.9 L55.2,32.4 C56,32.4 56.2,32.3 56.2,31.7 L56.2,30.5 L54.5,27.4 C54.3,27.1 54.2,27 53.7,27 L53.7,26.5 L56.6,26.5 L56.6,27 C55.8,27 55.7,27.2 56,27.9 L57,29.8 L58,28.1 C58.4,27.4 58.4,27.1 57.6,27 L57.6,26.5 L59.9,26.5 L59.9,27 C59.3,27.1 59.1,27.3 58.5,28.3 L57.3,30.4 L57.3,31.7 C57.3,32.3 57.4,32.4 58.3,32.4 L58.3,32.9 L58.3,32.9 Z M62.8,29.7 C62.8,31.2 63.4,32.5 64.9,32.5 C66.5,32.5 67,31.1 67,29.7 C67,28.2 66.3,26.9 64.9,26.9 C63.5,27 62.8,28.2 62.8,29.7 L62.8,29.7 Z M68.4,29.7 C68.4,31.6 66.9,33 64.9,33 C62.8,33 61.4,31.5 61.4,29.7 C61.4,27.9 63,26.4 64.9,26.4 C67,26.4 68.4,27.9 68.4,29.7 Z M72.5,27.1 L72.5,29.6 L72.9,29.6 C74,29.6 74.6,29.1 74.6,28.4 C74.6,27.5 74,27.2 73.2,27.2 L72.5,27.2 L72.5,27.1 Z M70.5,32.9 L70.5,32.4 C71.3,32.4 71.4,32.3 71.4,31.3 L71.4,28.2 C71.4,27.2 71.3,27.1 70.5,27.1 L70.5,26.6 L73.5,26.6 C75.1,26.6 75.9,27.1 75.9,28.2 C75.9,29 75.3,29.7 74.3,29.9 L76,32 C76.3,32.3 76.4,32.4 77,32.5 L77,33 L75.4,33 L73.6,30.6 C73.4,30.3 73.2,30.2 72.9,30.2 L72.7,30.2 L72.7,31.4 C72.7,32.4 72.8,32.5 73.6,32.5 L73.6,33 L70.5,32.9 L70.5,32.9 Z M80.7,30.1 C81.4,29.4 82.1,28.7 82.6,28 C83,27.5 83.1,27.1 82.3,27.1 L82.3,26.6 L84.6,26.6 L84.6,27 C83.9,27.1 83.7,27.3 82.9,28.2 C82.6,28.5 82.3,28.9 82,29.2 L84.2,31.9 C84.6,32.3 84.8,32.4 85.2,32.4 L85.2,32.9 L82.2,32.9 L82.2,32.4 C83,32.4 83,32.3 82.5,31.6 L81.4,30 L80.7,30.7 L80.7,31.7 C80.7,32.3 80.8,32.4 81.5,32.4 L81.5,32.9 L78.6,32.9 L78.6,32.4 C79.4,32.4 79.5,32.3 79.5,31.3 L79.5,28.2 C79.5,27.2 79.4,27.1 78.6,27.1 L78.6,26.6 L81.4,26.6 L81.4,27 C80.7,27 80.6,27.1 80.6,27.8 L80.7,30.1 L80.7,30.1 Z"/>
            </g>
        </g>
    </g>
</svg>